<?xml version="1.0"?>
<svg xmlns="http://www.w3.org/2000/svg" xmlns:xlink="http://www.w3.org/1999/xlink" version="1.1" id="Capa_1" x="0px" y="0px" viewBox="0 0 512 512" style="enable-background:new 0 0 512 512;" xml:space="preserve" width="512px" height="512px"><g><g>
	<path d="M151,180v60h15c8.401,0,15,6.599,15,15v42.299c17.401-6,30-22.8,30-42.299v-75H151z M301,180v60h15c8.401,0,15,6.599,15,15   v42.299c17.401-6,30-22.8,30-42.299v-75H301z M301,180v60h15c8.401,0,15,6.599,15,15v42.299c17.401-6,30-22.8,30-42.299v-75H301z    M151,180v60h15c8.401,0,15,6.599,15,15v42.299c17.401-6,30-22.8,30-42.299v-75H151z M151,180v60h15c8.401,0,15,6.599,15,15v42.299   c17.401-6,30-22.8,30-42.299v-75H151z M301,180v60h15c8.401,0,15,6.599,15,15v42.299c17.401-6,30-22.8,30-42.299v-75H301z M301,180   v60h15c8.401,0,15,6.599,15,15v42.299c17.401-6,30-22.8,30-42.299v-75H301z M151,180v60h15c8.401,0,15,6.599,15,15v42.299   c17.401-6,30-22.8,30-42.299v-75H151z M256,0C131.8,0,31,100.8,31,225c0,119.099,92.999,216.899,210,224.399V497   c0,8.399,6.599,15,15,15c121.199,0,225-158.601,225-287C481,100.8,380.2,0,256,0z M241,255c0,41.4-33.6,75-75,75   c-8.401,0-15-6.601-15-15v-45h-15c-8.401,0-15-6.601-15-15v-90c0-8.401,6.599-15,15-15h90c8.401,0,15,6.599,15,15V255z M391,255   c0,41.4-33.6,75-75,75c-8.401,0-15-6.601-15-15v-45h-15c-8.401,0-15-6.601-15-15v-90c0-8.401,6.599-15,15-15h90   c8.401,0,15,6.599,15,15V255z M301,240h15c8.401,0,15,6.599,15,15v42.299c17.401-6,30-22.8,30-42.299v-75h-60V240z M151,240h15   c8.401,0,15,6.599,15,15v42.299c17.401-6,30-22.8,30-42.299v-75h-60V240z M151,180v60h15c8.401,0,15,6.599,15,15v42.299   c17.401-6,30-22.8,30-42.299v-75H151z M301,180v60h15c8.401,0,15,6.599,15,15v42.299c17.401-6,30-22.8,30-42.299v-75H301z M301,180   v60h15c8.401,0,15,6.599,15,15v42.299c17.401-6,30-22.8,30-42.299v-75H301z M151,180v60h15c8.401,0,15,6.599,15,15v42.299   c17.401-6,30-22.8,30-42.299v-75H151z M301,180v60h15c8.401,0,15,6.599,15,15v42.299c17.401-6,30-22.8,30-42.299v-75H301z M301,180   v60h15c8.401,0,15,6.599,15,15v42.299c17.401-6,30-22.8,30-42.299v-75H301z" data-original="#000000" class="active-path" data-old_color="#000000" fill="#084B7B"/>
</g></g> </svg>
